<svg width="99" height="99" viewBox="0 0 99 99" fill="none" xmlns="http://www.w3.org/2000/svg">
<path d="M98.3716 0.989014H0.606201V98.2112H98.3716V0.989014Z" fill="#F7DF1E"/>
<path d="M66.2796 76.9443C68.2489 80.1418 70.811 82.4921 75.3423 82.4921C79.149 82.4921 81.5807 80.6001 81.5807 77.9859C81.5807 74.8532 79.0822 73.7437 74.8923 71.9211L72.5956 70.9412C65.9661 68.1325 61.562 64.614 61.562 57.1757C61.562 50.3239 66.8119 45.1078 75.0164 45.1078C80.8575 45.1078 85.0568 47.1295 88.0829 52.4227L80.9289 56.9906C79.3538 54.1819 77.6545 53.0754 75.0164 53.0754C72.3256 53.0754 70.6201 54.773 70.6201 56.9906C70.6201 59.7313 72.3271 60.8409 76.2688 62.5384L78.5655 63.5168C86.3712 66.8455 90.7784 70.239 90.7784 77.8686C90.7784 86.094 84.2809 90.6001 75.5549 90.6001C67.0229 90.6001 61.5108 86.5569 58.8138 81.2575L66.2796 76.9443ZM33.8262 77.7359C35.2694 80.2822 36.5822 82.435 39.7387 82.435C42.757 82.435 44.6611 81.2606 44.6611 76.6943V45.6295H53.8479V76.8177C53.8479 86.2776 48.2706 90.5832 40.1297 90.5832C32.774 90.5832 28.5143 86.7977 26.3479 82.2382L33.8262 77.7359Z" fill="black"/>
</svg>
