<svg width="98" height="59" viewBox="0 0 98 59" fill="none" xmlns="http://www.w3.org/2000/svg">
<path d="M23.3292 15.6385H41.6662V17.089H25.0101V28.0055H40.673V29.4559H25.0101V41.4412H41.8572V42.8917H23.3292V15.6385ZM43.3089 15.6385H45.2572L53.8909 27.6238L62.7156 15.6385L74.7186 0.414429L54.9987 28.8834L65.1605 42.8917H63.1358L53.8909 30.143L44.6078 42.8917H42.6213L52.8594 28.8834L43.3089 15.6385ZM65.8863 17.089V15.6385H86.7829V17.089H77.156V42.8917H75.4751V17.089H65.8863Z" fill="white"/>
<path d="M0.388889 15.6384H2.49L31.4632 58.7857L19.4899 42.8916L2.14619 17.6996L2.06978 42.8916H0.388889V15.6384Z" fill="white"/>
<path d="M86.6136 41.0034C86.9611 41.0034 87.2145 40.7386 87.2145 40.3964C87.2145 40.0542 86.9611 39.7894 86.6136 39.7894C86.2701 39.7894 86.0126 40.0542 86.0126 40.3964C86.0126 40.7386 86.2701 41.0034 86.6136 41.0034ZM88.2652 39.4064C88.2652 40.4168 88.997 41.0768 90.0641 41.0768C91.2006 41.0768 91.8875 40.3964 91.8875 39.215V35.0554H90.9717V39.2109C90.9717 39.8668 90.6405 40.2172 90.0559 40.2172C89.5326 40.2172 89.1769 39.8912 89.1647 39.4064H88.2652ZM93.0853 39.3535C93.1508 40.4046 94.0298 41.0768 95.338 41.0768C96.7362 41.0768 97.6111 40.372 97.6111 39.2476C97.6111 38.3635 97.1123 37.8746 95.9022 37.5935L95.2522 37.4346C94.4835 37.2554 94.1728 37.015 94.1728 36.5954C94.1728 36.0658 94.6553 35.7195 95.3789 35.7195C96.0657 35.7195 96.54 36.0576 96.6258 36.5995H97.5171C97.4639 35.6095 96.589 34.9128 95.3912 34.9128C94.1033 34.9128 93.2448 35.6095 93.2448 36.6565C93.2448 37.5202 93.7313 38.0335 94.7984 38.282L95.5588 38.4653C96.3396 38.6487 96.6831 38.9176 96.6831 39.3657C96.6831 39.8872 96.1434 40.266 95.4075 40.266C94.6185 40.266 94.0706 39.9116 93.993 39.3535H93.0853Z" fill="white"/>
</svg>
