<svg width="99" height="107" viewBox="0 0 99 107" fill="none" xmlns="http://www.w3.org/2000/svg">
<path d="M49.4889 62.1715C54.2491 62.1715 58.1081 58.334 58.1081 53.6001C58.1081 48.8663 54.2491 45.0288 49.4889 45.0288C44.7286 45.0288 40.8697 48.8663 40.8697 53.6001C40.8697 58.334 44.7286 62.1715 49.4889 62.1715Z" fill="#61DAFB"/>
<path fill-rule="evenodd" clip-rule="evenodd" d="M8.96143 49.0901C7.00682 50.8447 6.36435 52.3746 6.36435 53.6001C6.36435 54.8256 7.00682 56.3554 8.96143 58.1101C10.9147 59.8636 13.9175 61.5858 17.8948 63.096C25.8273 66.1079 36.9967 68.0359 49.4888 68.0359C61.981 68.0359 73.1503 66.1079 81.0829 63.096C85.0602 61.5858 88.063 59.8636 90.0163 58.1101C91.9709 56.3554 92.6133 54.8256 92.6133 53.6001C92.6133 52.3746 91.9709 50.8447 90.0163 49.0901C88.063 47.3366 85.0602 45.6144 81.0829 44.1042C73.1503 41.0923 61.981 39.1643 49.4888 39.1643C36.9967 39.1643 25.8273 41.0923 17.8948 44.1042C13.9175 45.6144 10.9147 47.3366 8.96143 49.0901ZM15.6762 38.2612C24.4827 34.9175 36.4381 32.9143 49.4888 32.9143C62.5396 32.9143 74.495 34.9175 83.3014 38.2612C87.6937 39.929 91.464 41.9908 94.1914 44.4392C96.9175 46.8864 98.8633 49.9763 98.8633 53.6001C98.8633 57.2239 96.9175 60.3138 94.1914 62.761C91.464 65.2094 87.6937 67.2712 83.3014 68.9389C74.495 72.2827 62.5396 74.2859 49.4888 74.2859C36.4381 74.2859 24.4827 72.2827 15.6762 68.9389C11.284 67.2712 7.51371 65.2094 4.7863 62.761C2.06021 60.3138 0.114349 57.2239 0.114349 53.6001C0.114349 49.9763 2.06021 46.8864 4.7863 44.4392C7.51371 41.9908 11.284 39.929 15.6762 38.2612Z" fill="#61DAFB"/>
<path fill-rule="evenodd" clip-rule="evenodd" d="M33.1779 16.449C30.6757 15.644 29.0136 15.8516 27.9331 16.4719C26.8526 17.0923 25.8408 18.4199 25.2907 20.9774C24.7406 23.535 24.7422 26.9798 25.4152 31.1575C26.7578 39.4904 30.6616 50.0693 36.9058 60.8245C43.15 71.5797 50.4109 80.2312 56.9965 85.5539C60.2982 88.2224 63.2973 89.9462 65.7997 90.7512C68.3019 91.5562 69.964 91.3486 71.0445 90.7283C72.125 90.1079 73.1368 88.7803 73.6869 86.2228C74.237 83.6652 74.2354 80.2204 73.5623 76.0427C72.2198 67.7098 68.3159 57.1309 62.0717 46.3757C55.8276 35.6205 48.5667 26.969 41.9811 21.6463C38.6794 18.9778 35.6803 17.254 33.1779 16.449ZM45.9208 16.8074C53.2397 22.7227 60.9647 32.021 67.4919 43.2637C74.0192 54.5065 78.2542 65.8084 79.7462 75.0692C80.4904 79.6884 80.58 83.9687 79.8112 87.5431C79.0423 91.1178 77.3251 94.3291 74.1826 96.1334C71.04 97.9376 67.3848 97.8108 63.8874 96.6857C60.3901 95.5606 56.7073 93.3433 53.0567 90.3928C45.7378 84.4775 38.0129 75.1792 31.4856 63.9365C24.9584 52.6937 20.7233 41.3918 19.2313 32.131C18.4872 27.5118 18.3976 23.2315 19.1664 19.657C19.9353 16.0824 21.6524 12.8711 24.795 11.0668C27.9376 9.26256 31.5928 9.38936 35.0902 10.5145C38.5874 11.6396 42.2702 13.8569 45.9208 16.8074Z" fill="#61DAFB"/>
<path fill-rule="evenodd" clip-rule="evenodd" d="M73.6869 20.9774C73.1369 18.4199 72.125 17.0923 71.0445 16.4719C69.964 15.8516 68.3019 15.644 65.7997 16.449C63.2974 17.254 60.2982 18.9778 56.9965 21.6463C50.4109 26.969 43.1501 35.6205 36.9059 46.3757C30.6617 57.1308 26.7578 67.7098 25.4153 76.0427C24.7422 80.2204 24.7406 83.6652 25.2907 86.2228C25.8408 88.7802 26.8526 90.1079 27.9331 90.7282C29.0136 91.3486 30.6757 91.5562 33.1779 90.7512C35.6803 89.9461 38.6795 88.2224 41.9811 85.5539C48.5667 80.2312 55.8276 71.5797 62.0718 60.8245C68.316 50.0693 72.2199 39.4904 73.5624 31.1574C74.2354 26.9798 74.237 23.535 73.6869 20.9774ZM79.7463 32.131C78.2543 41.3918 74.0192 52.6937 67.492 63.9365C60.9647 75.1792 53.2398 84.4774 45.9209 90.3928C42.2703 93.3433 38.5875 95.5606 35.0903 96.6857C31.5928 97.8108 27.9376 97.9376 24.7951 96.1333C21.6525 94.3291 19.9353 91.1177 19.1665 87.5431C18.3977 83.9687 18.4872 79.6884 19.2314 75.0692C20.7234 65.8084 24.9584 54.5064 31.4857 43.2637C38.0129 32.021 45.7379 22.7227 53.0568 16.8074C56.7074 13.8569 60.3902 11.6396 63.8874 10.5145C67.3848 9.38935 71.04 9.26255 74.1826 11.0668C77.3252 12.8711 79.0424 16.0824 79.8112 19.657C80.58 23.2315 80.4905 27.5118 79.7463 32.131Z" fill="#61DAFB"/>
</svg>
